<?xml version="1.0" encoding="utf-8"?>
<!-- Generator: Adobe Illustrator 21.0.2, SVG Export Plug-In . SVG Version: 6.00 Build 0)  -->
<svg version="1.1" id="Layer_1" xmlns="http://www.w3.org/2000/svg" xmlns:xlink="http://www.w3.org/1999/xlink" x="0px" y="0px"
	 viewBox="0 0 427 182" style="enable-background:new 0 0 427 182;" xml:space="preserve">
<style type="text/css">
	.st0{fill:#FFFFFF;}
	.st1{fill:#1E7ABC;}
</style>
<path class="st0" d="M379.6,145.6H47.4c-6.6,0-12-5.4-12-12V48.4c0-6.6,5.4-12,12-12h332.1c6.6,0,12,5.4,12,12v85.2
	C391.6,140.2,386.2,145.6,379.6,145.6z"/>
<g>
	<path class="st1" d="M163.6,98l-11.7-26.4L140.4,98H163.6z M127.8,112.8l20.5-45.4c0.7-1.6,1.8-2.5,3.6-2.5h0.3
		c1.7,0,2.9,0.9,3.5,2.5l20.6,45.4c0.2,0.5,0.4,1,0.4,1.5c0,1.5-1.2,2.8-2.8,2.8c-1.4,0-2.3-0.9-2.8-2.1l-5.3-11.7h-27.7l-5.3,11.8
		c-0.5,1.2-1.4,2-2.7,2c-1.4,0-2.6-1.2-2.6-2.6C127.5,114,127.5,113.5,127.8,112.8 M196.8,67.7c0-1.6,1.3-2.9,2.8-2.9
		c1.6,0,2.9,1.3,2.9,2.9v43.9h26.3c1.4,0,2.6,1.2,2.6,2.7c0,1.4-1.2,2.6-2.6,2.6h-29.1c-1.5,0-2.8-1.3-2.8-2.9L196.8,67.7
		L196.8,67.7z M251.3,67.7c0-1.6,1.3-2.9,2.8-2.9c1.6,0,2.9,1.3,2.9,2.9V114c0,1.6-1.3,2.9-2.9,2.9c-1.5,0-2.8-1.3-2.8-2.9V67.7z
		 M278.1,110.1c-0.6-0.4-1.1-1.2-1.1-2.2c0-1.6,1.2-2.8,2.8-2.8c0.7,0,1.4,0.3,1.7,0.7c4.8,4,9.6,6,16,6c6.8,0,11.3-3.6,11.3-8.6
		v-0.1c0-4.7-2.5-7.4-13.2-9.6c-11.7-2.5-17-6.3-17-14.6v-0.1c0-8,7-13.8,16.6-13.8c6.7,0,11.5,1.7,16.1,5c0.6,0.4,1.2,1.2,1.2,2.3
		c0,1.5-1.2,2.8-2.8,2.8c-0.7,0-1.2-0.1-1.7-0.5c-4.3-3.1-8.4-4.4-13.1-4.4c-6.6,0-10.8,3.6-10.8,8.2v0.1c0,4.8,2.6,7.4,13.7,9.8
		c11.3,2.5,16.5,6.6,16.5,14.3v0.1c0,8.7-7.2,14.3-17.3,14.3C289.9,117,283.7,114.6,278.1,110.1 M335.6,110.1
		c-0.7-0.4-1.1-1.2-1.1-2.2c0-1.6,1.2-2.8,2.8-2.8c0.7,0,1.4,0.3,1.7,0.7c4.8,4,9.5,6,16,6c6.8,0,11.3-3.6,11.3-8.6v-0.1
		c0-4.7-2.5-7.4-13.2-9.6c-11.7-2.5-17-6.3-17-14.6v-0.1c0-8,7-13.8,16.6-13.8c6.7,0,11.5,1.7,16.1,5c0.6,0.4,1.2,1.2,1.2,2.3
		c0,1.5-1.2,2.8-2.8,2.8c-0.7,0-1.2-0.1-1.7-0.5c-4.3-3.1-8.4-4.4-13.1-4.4c-6.6,0-10.8,3.6-10.8,8.2v0.1c0,4.8,2.6,7.4,13.7,9.8
		c11.3,2.5,16.5,6.6,16.5,14.3v0.1c0,8.7-7.2,14.3-17.3,14.3C347.5,117,341.4,114.6,335.6,110.1 M72.2,81.4c0,5,4.1,9.1,9.1,9.1
		s9.1-4.1,9.1-9.1s-4.1-9.1-9.1-9.1C76.3,72.4,72.2,76.4,72.2,81.4"/>
	<path class="st1" d="M81.3,56c-14.4,0-26.2,11.6-26.2,26.2c0,15.3,13.1,30.9,22.6,41.9c0,0,1.6,1.8,3.5,1.8h0.2
		c1.9,0,3.4-1.7,3.5-1.8c4.8-5.5,10.4-12.1,14.9-19.3l-3-2.9l-6.5-6.5c-2.6,1.7-5.7,2.7-9,2.7c-9.1,0-16.6-7.4-16.6-16.6
		c0-9.1,7.4-16.6,16.6-16.6c9.1,0,16.6,7.4,16.6,16.6c0,3.3-1,6.4-2.7,9l5,5l3,3c2.6-5.3,4.3-10.8,4.3-16.3
		C107.5,67.7,95.7,56.1,81.3,56"/>
</g>
<polyline class="st0" points="288.5,132.1 325.4,169 362.9,131.5 288.5,131.5 "/>
</svg>
